# xmcd CD database file
#
# Track frame offsets:
#	225
#	7885
#	18116
#	33973
#	48840
#	74216
#	82248
#	97286
#	111443
#	136936
#	150798
#	171174
#	181320
#	204793
#	221625
#
# Disc length: 3166 seconds
#
# Revision: 0
# Processed by: cddbd v1.5.2PL0 Copyright (c) Steve Scherf et al.
# Submitted via: CDex 1.51
#
DISCID=c60c5b0f
DTITLE=Karen Asatrian - Anna Hakobyan - Duo Masis
DYEAR=2008
DGENRE=Jazz
TTITLE0=Overture
TTITLE1=Por una Cabeza
TTITLE2=Pour Valia
TTITLE3=Revirado
TTITLE4=Ja Vstretil Vas (I´ve met You)
TTITLE5=Kaqavik (Rebhühnchen)
TTITLE6=El Sol Suendo
TTITLE7=Mi Buenos Aires Querido
TTITLE8=Schindler´s List
TTITLE9=Libertango
TTITLE10=Chiquilin De Bacin
TTITLE11=My Happiness
TTITLE12=Ochi Chernie (Dark Eyes)
TTITLE13=Deborah´s Theme
TTITLE14=The Violet Seller
EXTD=YEAR: 2008
EXTT0=
EXTT1=
EXTT2=
EXTT3=
EXTT4=
EXTT5=
EXTT6=
EXTT7=
EXTT8=
EXTT9=
EXTT10=
EXTT11=
EXTT12=
EXTT13=
EXTT14=
PLAYORDER=
